# xmcd CD database file
#
# Track frame offsets:
#	150
#	16652
#	36512
#	52512
#	74435
#	91687
#	106415
#	123577
#	142162
#	168560
#
# Disc length: 2457 seconds
#
# Revision: 1
# Processed by: cddbd v1.5.2PL0 Copyright (c) Steve Scherf et al.
# Submitted via: CDex 1.70beta2
#
DISCID=8209970a
DTITLE=伊藤銀次 - STARDUST SYMPHONY
DYEAR=1983
DGENRE=Pop
TTITLE0=ハートブレイク片手にダンスに夢中 -Come On And Dance With Me-
TTITLE1=トワイライト・シンフォニー -Twilight Symphony-
TTITLE2=ME and YOU, YOU and ME
TTITLE3=ディズニー・ガール -Disney Girl-
TTITLE4=スターダスト・トレイン -Stardust Train-
TTITLE5=泣きやまないで,LOVE AGAIN -I'll Never Be Back In Love Again-
TTITLE6=風のプール
TTITLE7=ワン・サマー・ナイト -One Summer Night-
TTITLE8=ビューティフル・ナイト -Beautiful Night-
TTITLE9=パパラプドゥ・ピピラプドゥ -Papa-Lapu-Duh, Pipi-Lapu-Duh-
EXTD=YEAR: 1983
EXTT0=
EXTT1=
EXTT2=
EXTT3=
EXTT4=
EXTT5=
EXTT6=
EXTT7=
EXTT8=
EXTT9=
PLAYORDER=
